<svg width="64" height="64" viewBox="0 0 64 64" fill="none" xmlns="http://www.w3.org/2000/svg">
<path d="M36.0251 39.975C37.3919 41.3419 39.608 41.3419 40.9749 39.975C42.3417 38.6082 42.3417 36.3921 40.9749 35.0253L36.0251 39.975ZM27.9749 22.0253C26.608 20.6585 24.3919 20.6585 23.0251 22.0253C21.6583 23.3921 21.6583 25.6082 23.0251 26.975L27.9749 22.0253ZM40.9749 26.975C42.3417 25.6082 42.3417 23.3921 40.9749 22.0253C39.608 20.6585 37.3919 20.6585 36.0251 22.0253L40.9749 26.975ZM23.0251 35.0253C21.6583 36.3921 21.6583 38.6082 23.0251 39.975C24.3919 41.3419 26.608 41.3419 27.9749 39.975L23.0251 35.0253ZM31.6182 8.17262L33.0587 11.3624L33.0591 11.3622L31.6182 8.17262ZM8.6134 18.5619L7.17285 15.3721L7.17275 15.3721L8.6134 18.5619ZM8.03358 19.5095L11.5269 19.2936L11.5269 19.2936L8.03358 19.5095ZM31.7509 55.9289L30.7298 59.2766L30.7303 59.2768L31.7509 55.9289ZM32.2487 55.9285L31.2152 52.5845L31.2142 52.5848L32.2487 55.9285ZM55.964 18.0006L59.4571 18.2206L59.4571 18.2202L55.964 18.0006ZM55.3344 17.0329L54.0709 20.2969L54.0712 20.297L55.3344 17.0329ZM32.3907 8.15142L31.1269 11.4153L31.1272 11.4154L32.3907 8.15142ZM29.5251 33.475L36.0251 39.975L40.9749 35.0253L34.4749 28.5253L29.5251 33.475ZM34.4749 28.5253L27.9749 22.0253L23.0251 26.975L29.5251 33.475L34.4749 28.5253ZM34.4749 33.475L40.9749 26.975L36.0251 22.0253L29.5251 28.5253L34.4749 33.475ZM36.0251 22.0253L23.0251 35.0253L27.9749 39.975L40.9749 26.975L36.0251 22.0253ZM30.1776 4.98282L7.17285 15.3721L10.054 21.7517L33.0587 11.3624L30.1776 4.98282ZM7.17275 15.3721C5.52639 16.1157 4.42211 17.8141 4.54024 19.7254L11.5269 19.2936C11.5948 20.3926 10.9587 21.343 10.0541 21.7516L7.17275 15.3721ZM4.54024 19.7254C5.10105 28.799 9.47966 37.9431 14.5338 45.0092C17.084 48.5746 19.8803 51.7166 22.5988 54.1534C25.2455 56.5259 28.0815 58.4689 30.7298 59.2766L32.772 52.5811C31.5657 52.2132 29.6362 51.0611 27.2712 48.9411C24.9779 46.8853 22.5164 44.1372 20.2273 40.9369C15.6029 34.4715 11.9774 26.5816 11.5269 19.2936L4.54024 19.7254ZM30.7303 59.2768C31.5586 59.5293 32.438 59.5336 33.2832 59.2721L31.2142 52.5848C31.4462 52.5131 31.7118 52.4672 31.9993 52.4672C32.2864 52.4671 32.5476 52.5127 32.7715 52.581L30.7303 59.2768ZM33.2821 59.2724C35.991 58.4352 38.8481 56.3393 41.4736 53.8366C44.1837 51.2533 46.968 47.9254 49.5049 44.1831C54.5309 36.7689 58.8867 27.277 59.4571 18.2206L52.4709 17.7806C52.0089 25.1174 48.3585 33.3991 43.7107 40.2553C41.4106 43.6483 38.9411 46.5799 36.6438 48.7698C34.2618 51.0404 32.3578 52.2314 31.2152 52.5845L33.2821 59.2724ZM59.4571 18.2202C59.5835 16.21 58.3615 14.4514 56.5976 13.7688L54.0712 20.297C53.1037 19.9225 52.3981 18.9388 52.4709 17.7809L59.4571 18.2202ZM56.5979 13.7689L33.6542 4.88743L31.1272 11.4154L54.0709 20.2969L56.5979 13.7689ZM33.6544 4.88754C32.5295 4.45198 31.2767 4.48632 30.1772 4.983L33.0591 11.3622C32.4481 11.6383 31.752 11.6573 31.1269 11.4153L33.6544 4.88754Z" fill="white"/>
</svg>
